<svg xmlns="http://www.w3.org/2000/svg" width="200" height="200" viewBox="0 0 200 200">
  <!-- Gradient definitions -->
  <defs>
    <linearGradient id="spaceGradient" x1="0%" y1="0%" x2="100%" y2="100%">
      <stop offset="0%" stop-color="#0B0B3B" />
      <stop offset="50%" stop-color="#1A1A5E" />
      <stop offset="100%" stop-color="#000033" />
    </linearGradient>
    <linearGradient id="planetGradient1" x1="0%" y1="0%" x2="100%" y2="100%">
      <stop offset="0%" stop-color="#FF6B6B" />
      <stop offset="100%" stop-color="#A83232" />
    </linearGradient>
    <linearGradient id="planetGradient2" x1="0%" y1="0%" x2="100%" y2="100%">
      <stop offset="0%" stop-color="#6B9FFF" />
      <stop offset="100%" stop-color="#3264A8" />
    </linearGradient>
    <linearGradient id="ringGradient" x1="0%" y1="0%" x2="100%" y2="100%">
      <stop offset="0%" stop-color="#D4AF37" />
      <stop offset="100%" stop-color="#AA8C2C" />
    </linearGradient>
    <radialGradient id="nebulaGradient" cx="50%" cy="50%" r="50%" fx="50%" fy="50%">
      <stop offset="0%" stop-color="#9370DB" stop-opacity="0.8" />
      <stop offset="70%" stop-color="#8A2BE2" stop-opacity="0.3" />
      <stop offset="100%" stop-color="#4B0082" stop-opacity="0" />
    </radialGradient>
    <filter id="glow" x="-20%" y="-20%" width="140%" height="140%">
      <feGaussianBlur stdDeviation="2" result="blur" />
      <feComposite in="SourceGraphic" in2="blur" operator="over" />
    </filter>
  </defs>

  <!-- Space background -->
  <circle cx="100" cy="100" r="95" fill="url(#spaceGradient)" />
  
  <!-- Nebula -->
  <ellipse cx="120" cy="80" rx="80" ry="60" fill="url(#nebulaGradient)" />
  
  <!-- Stars -->
  <circle cx="30" cy="40" r="1.5" fill="white" filter="url(#glow)" />
  <circle cx="50" cy="70" r="1" fill="white" filter="url(#glow)" />
  <circle cx="70" cy="30" r="1.2" fill="white" filter="url(#glow)" />
  <circle cx="90" cy="50" r="0.8" fill="white" filter="url(#glow)" />
  <circle cx="120" cy="40" r="1" fill="white" filter="url(#glow)" />
  <circle cx="150" cy="30" r="1.5" fill="white" filter="url(#glow)" />
  <circle cx="170" cy="60" r="1" fill="white" filter="url(#glow)" />
  <circle cx="40" cy="100" r="1.2" fill="white" filter="url(#glow)" />
  <circle cx="60" cy="130" r="0.8" fill="white" filter="url(#glow)" />
  <circle cx="100" cy="150" r="1" fill="white" filter="url(#glow)" />
  <circle cx="130" cy="170" r="1.5" fill="white" filter="url(#glow)" />
  <circle cx="160" cy="140" r="1" fill="white" filter="url(#glow)" />
  <circle cx="180" cy="110" r="1.2" fill="white" filter="url(#glow)" />
  <circle cx="20" cy="160" r="0.8" fill="white" filter="url(#glow)" />
  
  <!-- Shooting star -->
  <path d="M160,20 L140,40" stroke="white" stroke-width="1" filter="url(#glow)" />
  <circle cx="140" cy="40" r="1" fill="white" filter="url(#glow)" />
  
  <!-- Red planet -->
  <circle cx="50" cy="60" r="20" fill="url(#planetGradient1)" />
  <circle cx="45" cy="55" r="5" fill="#C64747" fill-opacity="0.5" />
  <circle cx="60" cy="65" r="3" fill="#C64747" fill-opacity="0.5" />
  
  <!-- Blue planet with ring -->
  <circle cx="150" cy="120" r="25" fill="url(#planetGradient2)" />
  <ellipse cx="150" cy="120" rx="35" ry="8" fill="none" stroke="url(#ringGradient)" stroke-width="2" />
  
  <!-- Small moon -->
  <circle cx="170" cy="100" r="5" fill="#D3D3D3" />
  <circle cx="168" cy="98" r="1" fill="#A9A9A9" />
  
  <!-- Rocket -->
  <path d="M80,140 L90,110 L100,140 Z" fill="#FF4500" />
  <rect x="85" y="140" width="10" height="15" fill="#FF4500" />
  <path d="M80,155 L85,150 L85,155 Z" fill="#1E90FF" />
  <path d="M100,155 L95,150 L95,155 Z" fill="#1E90FF" />
  <circle cx="90" cy="130" r="3" fill="#1E90FF" />
  <path d="M85,155 L90,165 L95,155 Z" fill="#FFA500" />
</svg> 